<?xml version="1.0" standalone="no"?>
<!DOCTYPE svg PUBLIC "-//W3C//DTD SVG 20010904//EN"
 "http://www.w3.org/TR/2001/REC-SVG-20010904/DTD/svg10.dtd">
<svg version="1.0" xmlns="http://www.w3.org/2000/svg"
 width="200.000000pt" height="200.000000pt" viewBox="0 0 200.000000 200.000000"
 preserveAspectRatio="xMidYMid meet">

<g transform="translate(0.000000,200.000000) scale(0.100000,-0.100000)"
fill="#000000" stroke="none">
<path d="M810 1664 c-19 -7 -54 -13 -77 -13 -23 -1 -56 -9 -75 -18 -18 -9 -45
-22 -60 -30 -14 -7 -36 -13 -47 -13 -12 0 -21 -4 -21 -9 0 -5 -14 -14 -32 -20
-33 -12 -78 -48 -78 -63 0 -4 273 -8 608 -8 l607 1 -29 24 c-16 13 -41 29 -55
35 -14 7 -33 16 -41 21 -8 5 -22 12 -30 15 -8 3 -28 12 -43 20 -16 7 -33 14
-39 14 -5 0 -24 6 -41 14 -18 8 -56 17 -86 20 -30 3 -59 10 -65 16 -15 15
-352 11 -396 -6z"/>
<path d="M1037 1294 c-6 -6 56 -54 69 -54 4 0 35 -28 71 -62 62 -60 111 -123
126 -160 6 -17 30 -18 306 -18 165 0 302 4 305 8 8 13 -24 154 -40 176 -8 11
-14 30 -14 42 0 12 -9 33 -21 48 l-20 26 -388 0 c-213 0 -390 -3 -394 -6z"/>
<path d="M206 1223 c-21 -2 -45 -10 -52 -17 -7 -7 -17 -56 -24 -109 -21 -174
11 -326 85 -413 6 -6 17 -22 25 -35 19 -30 71 -82 132 -132 l47 -38 108 4
c124 5 196 21 271 60 30 15 58 27 64 27 6 0 25 12 44 27 18 16 45 37 59 48 35
27 95 135 95 171 -1 34 -32 130 -49 147 -6 6 -11 16 -11 22 -1 17 -139 125
-180 141 -8 3 -23 9 -32 14 -24 13 -135 50 -150 50 -7 0 -25 7 -40 14 -29 15
-312 29 -392 19z"/>
<path d="M1585 772 l-220 -3 -17 -38 c-10 -21 -18 -41 -18 -45 0 -24 -80 -122
-138 -169 -63 -51 -144 -97 -174 -97 -7 0 -22 -7 -32 -15 -11 -8 -29 -15 -41
-15 -12 0 -25 -4 -31 -10 -5 -5 -32 -13 -59 -16 -66 -9 -88 -25 -49 -36 91
-25 430 -16 458 12 6 6 23 10 38 10 36 0 200 66 255 102 23 15 46 28 51 28 6
0 12 4 14 8 2 5 27 27 56 50 29 23 72 65 95 93 43 53 91 129 85 133 -10 9 -76
11 -273 8z"/>
</g>
</svg>
